# Blender v2.69 (sub 0) OBJ File: 'gatling.blend'
# www.blender.org
mtllib gatling-base.mtl
o Cube_Cube.001
v -1.000000 -1.000000 1.000000
v -1.000000 -1.000000 -1.000000
v 1.000000 -1.000000 -1.000000
v 1.000000 -1.000000 1.000000
v -1.000000 0.342802 0.172222
v 1.000000 -1.000000 0.172222
v 1.000000 0.342802 0.172222
v -1.000000 -1.000000 0.172222
v -1.000000 -0.333333 1.000000
v -1.000000 0.333333 1.000000
v -1.000000 1.000000 0.333333
v -1.000000 1.000000 -0.333333
v -1.000000 0.333333 -1.000000
v -1.000000 -0.333333 -1.000000
v -1.000000 -1.000000 -0.333333
v -1.000000 -1.000000 0.333333
v -0.333333 1.000000 -1.000000
v 0.333333 1.000000 -1.000000
v 1.000000 0.333333 -1.000000
v 1.000000 -0.333333 -1.000000
v 0.333333 -1.000000 -1.000000
v -0.333333 -1.000000 -1.000000
v 1.000000 1.000000 -0.333333
v 1.000000 1.000000 0.333333
v 1.000000 0.333333 1.000000
v 1.000000 -0.333333 1.000000
v 1.000000 -1.000000 0.333333
v 1.000000 -1.000000 -0.333333
v 0.333333 1.000000 1.000000
v -0.333333 1.000000 1.000000
v -0.333333 -1.000000 1.000000
v 0.333333 -1.000000 1.000000
v -1.000000 0.333333 0.333333
v -1.000000 -0.333333 0.333333
v -1.000000 0.333333 -0.333333
v -1.000000 -0.333333 -0.333333
v -0.333333 0.333333 -1.000000
v -0.333333 -0.333333 -1.000000
v 0.333333 0.333333 -1.000000
v 0.333333 -0.333333 -1.000000
v 1.000000 0.333333 -0.333333
v 1.000000 -0.333333 -0.333333
v 1.000000 0.333333 0.333333
v 1.000000 -0.333333 0.333333
v 0.333333 0.333333 1.000000
v 0.333333 -0.333333 1.000000
v -0.333333 0.333333 1.000000
v -0.333333 -0.333333 1.000000
v -0.333333 -1.000000 0.333333
v 0.333333 -1.000000 0.333333
v -0.333333 -1.000000 -0.333333
v 0.333333 -1.000000 -0.333333
v 0.333333 1.000000 0.333333
v -0.333333 1.000000 0.333333
v 0.333333 1.000000 -0.333333
v -0.333333 1.000000 -0.333333
v -1.000000 0.333333 0.172222
v -1.000000 -0.333333 0.172222
v 1.000000 0.333333 0.172222
v 1.000000 -0.333333 0.172222
v -0.333333 -1.000000 0.172222
v 0.333333 -1.000000 0.172222
v 0.333333 0.342802 0.172222
v -0.333333 0.342802 0.172222
v -0.333333 0.342802 -0.192901
v -0.333333 -1.000000 -0.192901
v -1.000000 -0.333333 -0.192901
v -1.000000 0.342802 -0.192901
v 0.333333 0.342802 -0.192901
v -1.000000 -1.000000 -0.192901
v 0.333333 -1.000000 -0.192901
v 1.000000 0.342802 -0.192901
v -1.000000 0.333333 -0.192901
v 1.000000 -1.000000 -0.192901
v 1.000000 0.333333 -0.192901
v 1.000000 -0.333333 -0.192901
vn -1.000000 0.000000 0.000000
vn 0.000000 0.000000 -1.000000
vn 1.000000 0.000000 0.000000
vn 0.000000 0.000000 1.000000
vn 0.000000 -1.000000 0.000000
vn 0.577350 0.577350 -0.577350
vn 0.577350 0.577350 0.577350
vn -0.577350 0.577350 0.577350
vn 0.000000 0.208966 0.977923
vn 0.000000 1.000000 0.000000
vn -0.577350 0.577350 -0.577350
vn 0.000000 0.238098 -0.971241
usemtl Gatling_metal
s off
f 36//1 14//1 2//1 15//1
f 40//2 20//2 3//2 21//2
f 44//3 26//3 4//3 27//3
f 48//4 9//4 1//4 31//4
f 52//5 21//5 3//5 28//5
f 16//5 8//5 61//5 49//5
f 9//1 34//1 16//1 1//1
f 67//1 36//1 15//1 70//1
f 11//1 5//1 57//1 33//1
f 10//1 33//1 34//1 9//1
f 68//1 12//1 35//1 73//1
f 73//1 35//1 36//1 67//1
f 49//5 61//5 62//5 50//5
f 35//1 13//1 14//1 36//1
f 14//2 38//2 22//2 2//2
f 38//2 40//2 21//2 22//2
f 19//6 18//6 23//6
f 13//2 37//2 38//2 14//2
f 17//2 18//2 39//2 37//2
f 37//2 39//2 40//2 38//2
f 75//3 59//3 60//3 76//3
f 39//2 19//2 20//2 40//2
f 20//3 42//3 28//3 3//3
f 60//3 44//3 27//3 6//3
f 25//7 24//7 29//7
f 19//3 41//3 42//3 20//3
f 7//3 24//3 43//3 59//3
f 59//3 43//3 44//3 60//3
f 76//3 60//3 6//3 74//3
f 43//3 25//3 26//3 44//3
f 26//4 46//4 32//4 4//4
f 46//4 48//4 31//4 32//4
f 11//8 10//8 30//8
f 25//4 45//4 46//4 26//4
f 29//4 30//4 47//4 45//4
f 45//4 47//4 48//4 46//4
f 33//1 57//1 58//1 34//1
f 47//4 10//4 9//4 48//4
f 32//5 50//5 27//5 4//5
f 71//5 52//5 28//5 74//5
f 1//5 16//5 49//5 31//5
f 31//5 49//5 50//5 32//5
f 70//5 15//5 51//5 66//5
f 66//5 51//5 52//5 71//5
f 15//5 2//5 22//5 51//5
f 51//5 22//5 21//5 52//5
f 34//1 58//1 8//1 16//1
f 65//9 56//9 12//9 68//9
f 72//3 7//3 59//3 75//3
f 29//10 53//10 54//10 30//10
f 72//9 23//9 55//9 69//9
f 69//9 55//9 56//9 65//9
f 50//5 62//5 6//5 27//5
f 55//10 18//10 17//10 56//10
f 24//10 53//10 29//10
f 43//3 24//3 25//3
f 29//4 45//4 25//4
f 39//2 18//2 19//2
f 23//3 41//3 19//3
f 55//10 23//10 18//10
f 56//10 17//10 12//10
f 35//1 12//1 13//1
f 17//2 37//2 13//2
f 11//1 33//1 10//1
f 30//10 54//10 11//10
f 47//4 30//4 10//4
f 12//11 17//11 13//11
f 54//12 64//12 5//12 11//12
f 24//12 7//12 63//12 53//12
f 53//12 63//12 64//12 54//12
f 58//1 67//1 70//1 8//1
f 5//1 68//1 73//1 57//1
f 57//1 73//1 67//1 58//1
f 41//3 75//3 76//3 42//3
f 42//3 76//3 74//3 28//3
f 62//5 71//5 74//5 6//5
f 8//5 70//5 66//5 61//5
f 61//5 66//5 71//5 62//5
f 64//10 65//10 68//10 5//10
f 23//3 72//3 75//3 41//3
f 7//10 72//10 69//10 63//10
f 63//10 69//10 65//10 64//10
